<svg width="25" height="24" viewBox="0 0 25 24" fill="none" xmlns="http://www.w3.org/2000/svg">
<path d="M9.25 5.25V7.5H15.25V5.25C15.2188 4.40625 14.9219 3.70312 14.3594 3.14062C13.7969 2.57812 13.0938 2.28125 12.25 2.25C11.4062 2.28125 10.7031 2.57812 10.1406 3.14062C9.57812 3.70312 9.28125 4.40625 9.25 5.25ZM7 9.75H4V19.5C4.03125 20.125 4.25 20.6562 4.65625 21.0938C5.09375 21.5 5.625 21.7188 6.25 21.75H18.25C18.875 21.7188 19.4062 21.5 19.8438 21.0938C20.25 20.6562 20.4688 20.125 20.5 19.5V9.75H17.5V12.375C17.4375 13.0625 17.0625 13.4375 16.375 13.5C15.6875 13.4375 15.3125 13.0625 15.25 12.375V9.75H9.25V12.375C9.1875 13.0625 8.8125 13.4375 8.125 13.5C7.4375 13.4375 7.0625 13.0625 7 12.375V9.75ZM7 7.5V5.25C7.03125 3.75 7.54688 2.51562 8.54688 1.54688C9.51562 0.546875 10.75 0.03125 12.25 0C13.75 0.03125 14.9844 0.546875 15.9531 1.54688C16.9531 2.51562 17.4688 3.75 17.5 5.25V7.5H20.5C21.125 7.53125 21.6562 7.75 22.0938 8.15625C22.5 8.59375 22.7188 9.125 22.75 9.75V19.5C22.7188 20.7812 22.2812 21.8438 21.4375 22.6875C20.5938 23.5312 19.5312 23.9687 18.25 24H6.25C4.96875 23.9687 3.90625 23.5312 3.0625 22.6875C2.21875 21.8438 1.78125 20.7812 1.75 19.5V9.75C1.78125 9.125 2 8.59375 2.40625 8.15625C2.84375 7.75 3.375 7.53125 4 7.5H7Z" fill="#201A1A"/>
</svg>
