<svg width="25" height="24" viewBox="0 0 25 24" fill="none" xmlns="http://www.w3.org/2000/svg">
<g clip-path="url(#clip0_270_111)">
<path d="M3.75 3C3.78125 2.15625 4.07812 1.45312 4.64062 0.890625C5.20312 0.328125 5.90625 0.03125 6.75 0H18.75C19.5938 0.03125 20.2969 0.328125 20.8594 0.890625C21.4219 1.45312 21.7188 2.15625 21.75 3V21C21.7188 21.8438 21.4219 22.5469 20.8594 23.1094C20.2969 23.6719 19.5938 23.9688 18.75 24H6.75C5.90625 23.9688 5.20312 23.6719 4.64062 23.1094C4.07812 22.5469 3.78125 21.8438 3.75 21V3ZM6.75 6.75C6.78125 7.21875 7.03125 7.46875 7.5 7.5H18C18.4688 7.46875 18.7188 7.21875 18.75 6.75C18.7188 6.28125 18.4688 6.03125 18 6H7.5C7.03125 6.03125 6.78125 6.28125 6.75 6.75ZM7.5 10.5C7.03125 10.5312 6.78125 10.7812 6.75 11.25C6.78125 11.7188 7.03125 11.9688 7.5 12H18C18.4688 11.9688 18.7188 11.7188 18.75 11.25C18.7188 10.7812 18.4688 10.5312 18 10.5H7.5ZM7.5 15C7.03125 15.0312 6.78125 15.2812 6.75 15.75C6.78125 16.2188 7.03125 16.4688 7.5 16.5H13.5C13.9688 16.4688 14.2188 16.2188 14.25 15.75C14.2188 15.2812 13.9688 15.0312 13.5 15H7.5Z" fill="#F3265E"/>
</g>
<defs>
<clipPath id="clip0_270_111">
<rect width="24" height="24" fill="white" transform="translate(0.75)"/>
</clipPath>
</defs>
</svg>
